<svg width="21" height="21" viewBox="0 0 21 21" fill="none" xmlns="http://www.w3.org/2000/svg">
<path d="M14.4062 15.7083V16.75C14.4062 19.2687 13.0187 20.6562 10.5 20.6562H4.25C1.73125 20.6562 0.34375 19.2687 0.34375 16.75V4.25C0.34375 1.73125 1.73125 0.34375 4.25 0.34375H10.5C13.0187 0.34375 14.4062 1.73125 14.4062 4.25V5.29167C14.4062 5.72292 14.0562 6.07292 13.625 6.07292C13.1937 6.07292 12.8438 5.72292 12.8438 5.29167V4.25C12.8438 2.60729 12.1427 1.90625 10.5 1.90625H4.25C2.60729 1.90625 1.90625 2.60729 1.90625 4.25V16.75C1.90625 18.3927 2.60729 19.0938 4.25 19.0938H10.5C12.1427 19.0938 12.8438 18.3927 12.8438 16.75V15.7083C12.8438 15.2771 13.1937 14.9271 13.625 14.9271C14.0562 14.9271 14.4062 15.2771 14.4062 15.7083ZM20.5958 10.7989C20.675 10.6083 20.675 10.3927 20.5958 10.2021C20.5563 10.1062 20.499 10.0198 20.4271 9.94792L17.3021 6.82292C16.9969 6.51771 16.5021 6.51771 16.1969 6.82292C15.8917 7.12813 15.8917 7.62292 16.1969 7.92813L17.9886 9.7198H6.33333C5.90208 9.7198 5.55208 10.0698 5.55208 10.501C5.55208 10.9323 5.90208 11.2823 6.33333 11.2823H17.9886L16.1969 13.074C15.8917 13.3792 15.8917 13.874 16.1969 14.1792C16.349 14.3313 16.549 14.4083 16.749 14.4083C16.949 14.4083 17.1489 14.3323 17.301 14.1792L20.426 11.0542C20.4989 10.9802 20.5563 10.8937 20.5958 10.7989Z" fill="#F93920"/>
</svg>
