<svg width="21" height="21" viewBox="0 0 21 21" fill="none" xmlns="http://www.w3.org/2000/svg">
<path d="M10.5001 9.19893C11.8886 9.19893 13.0178 8.06978 13.0178 6.68123C13.0178 5.29269 11.8886 4.16353 10.5001 4.16353C9.11153 4.16353 7.98237 5.29269 7.98237 6.68123C7.98237 8.06978 9.11153 9.19893 10.5001 9.19893ZM10.5001 5.72603C11.0261 5.72603 11.4553 6.15415 11.4553 6.68123C11.4553 7.20832 11.0272 7.63643 10.5001 7.63643C9.97299 7.63643 9.54487 7.20832 9.54487 6.68123C9.54487 6.15415 9.97403 5.72603 10.5001 5.72603ZM19.8376 5.68331C19.3084 5.35414 18.6271 5.33446 18.0146 5.6355L16.8136 6.23644C16.5834 2.94998 13.8428 0.34375 10.499 0.34375C7.24381 0.34375 4.55736 2.81149 4.20423 5.97399L1.80736 7.17715C0.904238 7.63027 0.342773 8.5397 0.342773 9.55116V18.3125C0.342773 18.951 0.665693 19.5322 1.20528 19.8686C1.74382 20.2041 2.40842 20.2364 2.9855 19.9521L6.53028 18.1688C6.61465 18.1292 6.69173 18.1073 6.78964 18.1063C6.89485 18.1 6.96988 18.1104 7.04904 18.1416L13.3938 20.5136C13.6438 20.6105 13.897 20.6583 14.1063 20.6583C14.1574 20.6583 14.2053 20.6561 14.2501 20.6499C14.5449 20.6499 14.8345 20.5812 15.1532 20.4312L19.1938 18.4C20.0959 17.9458 20.6563 17.0364 20.6563 16.027V7.26158C20.6563 6.58241 20.3584 6.00727 19.8376 5.68331ZM10.5001 1.90625C13.1324 1.90625 15.274 4.04894 15.274 6.68123C15.274 6.88853 15.2553 7.08861 15.2271 7.28548V7.2865C14.8719 9.77296 12.3855 11.4438 10.5001 12.6907C8.46466 11.3459 5.72611 9.50728 5.72611 6.68123C5.72611 4.04894 7.86778 1.90625 10.5001 1.90625ZM2.29068 18.5531C2.17506 18.6104 2.07819 18.5718 2.03132 18.5416C1.98444 18.5125 1.90632 18.4438 1.90632 18.3125V9.55116C1.90632 9.13553 2.13758 8.76029 2.50946 8.57383L4.25945 7.69594C4.48758 9.00636 5.13757 10.1073 5.96882 11.0417V16.7208C5.92819 16.7374 5.8886 16.7447 5.84694 16.7645L2.29068 18.5531ZM7.60529 16.6813C7.58133 16.672 7.55527 16.6698 7.53132 16.6615V12.4999C8.27507 13.0916 9.03861 13.5969 9.70007 14.0344L10.0668 14.2771C10.198 14.3646 10.349 14.4083 10.5001 14.4083C10.6511 14.4083 10.8021 14.3646 10.9334 14.2771L11.3001 14.0344C11.9615 13.598 12.7251 13.0916 13.4688 12.4999V18.873L7.60529 16.6813ZM19.0938 16.027C19.0938 16.4426 18.8626 16.8176 18.4917 17.0041L15.0313 18.7438V11.0417C15.7865 10.1938 16.3969 9.20821 16.674 8.053L18.7095 7.03448C18.8428 6.96885 18.9574 6.97492 19.0126 7.0093C19.0855 7.05513 19.0938 7.20116 19.0938 7.26158V16.027Z" fill="#090A0A"/>
</svg>
