<svg width="25" height="25" viewBox="0 0 25 25" fill="none" xmlns="http://www.w3.org/2000/svg">
<path d="M5.73535 16.6583L8.36452 9.4052C8.84368 8.39791 9.57493 7.56562 10.4135 9.56249C11.1874 11.4062 12.3406 14.7812 13.0229 16.6615M6.9291 13.5437H11.7926" stroke="#090A0A" stroke-width="1.5" stroke-linecap="round" stroke-linejoin="round"/>
<path d="M3.6085 4.49792C2.0835 5.87083 2.0835 8.08125 2.0835 12.5C2.0835 16.9187 2.0835 19.1292 3.6085 20.5021C5.13558 21.875 7.58975 21.875 12.5002 21.875C17.4106 21.875 19.8658 21.875 21.3908 20.5021C22.9158 19.1292 22.9168 16.9187 22.9168 12.5C22.9168 8.08125 22.9168 5.87083 21.3908 4.49792C19.8668 3.125 17.4106 3.125 12.5002 3.125C7.58975 3.125 5.13454 3.125 3.6085 4.49792Z" stroke="#090A0A" stroke-width="1.5" stroke-linecap="round" stroke-linejoin="round"/>
<path d="M19.2541 9.36157V12.4814M19.2541 12.4814V16.5887M19.2541 12.4814H17.1521C16.9021 12.4814 16.6541 12.5272 16.4208 12.6178C14.6573 13.3022 14.6573 15.847 16.4208 16.5314C16.6552 16.622 16.9021 16.6678 17.1521 16.6678H19.2541" stroke="#090A0A" stroke-width="1.5" stroke-linecap="round" stroke-linejoin="round"/>
</svg>
