<svg width="22" height="22" viewBox="0 0 22 22" fill="none" xmlns="http://www.w3.org/2000/svg">
<path d="M8.42608 9.19792C10.8677 9.19792 12.8532 7.21146 12.8532 4.77083C12.8532 2.33021 10.8677 0.34375 8.42608 0.34375C5.98441 0.34375 3.99899 2.33021 3.99899 4.77083C3.99899 7.21146 5.98441 9.19792 8.42608 9.19792ZM8.42608 1.90625C10.0063 1.90625 11.2907 3.19062 11.2907 4.77083C11.2907 6.35104 10.0063 7.63542 8.42608 7.63542C6.84587 7.63542 5.56149 6.35104 5.56149 4.77083C5.56149 3.19062 6.84587 1.90625 8.42608 1.90625ZM11.4177 12.3855C11.1552 12.3428 10.8552 12.3229 10.5 12.3229H6.33333C2.22604 12.3229 1.90625 15.7281 1.90625 16.7709C1.90625 18.399 2.60729 19.0938 4.25 19.0938H9.45833C9.88958 19.0938 10.2396 19.4437 10.2396 19.875C10.2396 20.3062 9.88958 20.6562 9.45833 20.6562H4.25C1.73125 20.6562 0.34375 19.2761 0.34375 16.7709C0.34375 13.9979 1.9125 10.7604 6.33333 10.7604H10.5C10.9385 10.7604 11.3198 10.7875 11.6656 10.8437C12.0917 10.9114 12.3823 11.3125 12.3125 11.7385C12.2448 12.1645 11.8312 12.4532 11.4177 12.3855ZM21.1594 16.2271L21.2979 16.1499C21.4823 16.0468 21.6167 15.8739 21.6708 15.6708C21.726 15.4667 21.6948 15.25 21.5875 15.0687L20.6334 13.4667C20.4167 13.1031 19.9532 12.9782 19.5803 13.1844L19.4417 13.2615C19.2364 13.3771 18.9791 13.3781 18.7708 13.2615C18.576 13.1521 18.4552 12.9521 18.4552 12.7406C18.4552 12.224 18.0334 11.8041 17.5136 11.8041H15.926C15.4062 11.8041 14.9844 12.224 14.9844 12.7406C14.9844 12.9531 14.8635 13.1521 14.6687 13.2615C14.4614 13.3781 14.2042 13.3781 13.998 13.2615C13.5542 13.0146 12.9875 13.1656 12.7282 13.5989L11.9333 14.9333C11.8052 15.1469 11.7677 15.4083 11.8302 15.649C11.8937 15.8906 12.0552 16.101 12.274 16.225C12.2813 16.2281 12.2875 16.2322 12.2948 16.2364C12.4813 16.3479 12.5958 16.5427 12.5958 16.75C12.5968 16.9635 12.476 17.1646 12.275 17.2771C12.0573 17.401 11.8958 17.6104 11.8312 17.851C11.7666 18.0938 11.8021 18.3479 11.9313 18.5667L12.7292 19.9031C12.9917 20.3427 13.5479 20.4916 13.999 20.2396C14.2042 20.1239 14.4604 20.1239 14.6687 20.2406C14.8635 20.3499 14.9833 20.5489 14.9833 20.7614C14.9833 21.2781 15.4052 21.6979 15.924 21.6979H17.5146C18.0333 21.6979 18.4552 21.2781 18.4552 20.7614C18.4552 20.5489 18.576 20.3499 18.7708 20.2406C18.9781 20.1239 19.2354 20.1239 19.4417 20.2406C19.8864 20.4874 20.451 20.3364 20.7114 19.9031L21.5115 18.5615C21.6386 18.3448 21.6729 18.0917 21.6083 17.849C21.5437 17.6053 21.3854 17.4021 21.1656 17.2771C21.1594 17.2739 21.1521 17.2698 21.1458 17.2666C20.9593 17.1552 20.8448 16.9593 20.8448 16.752C20.8459 16.5375 20.9667 16.3365 21.1594 16.2271ZM19.8844 18.2385L19.6375 18.6532C19.0906 18.5229 18.5042 18.5979 18.0063 18.8781C17.5105 19.1573 17.151 19.6115 16.9896 20.1354H16.4531C16.2927 19.6125 15.9333 19.1583 15.4365 18.8781C14.9396 18.5979 14.351 18.5209 13.8052 18.6532L13.5584 18.2396C13.9417 17.8396 14.1625 17.3062 14.1605 16.7448C14.1594 16.1875 13.9375 15.6584 13.5584 15.2615L13.8052 14.8468C14.351 14.9771 14.9386 14.9032 15.4365 14.6219C15.9323 14.3427 16.2916 13.8885 16.4531 13.3646H16.9896C17.15 13.8875 17.5105 14.3417 18.0063 14.6219C18.5053 14.9032 19.0937 14.9781 19.6375 14.8468L19.8844 15.2615C19.5032 15.6605 19.2823 16.1927 19.2833 16.752C19.2833 17.3104 19.5042 17.8406 19.8844 18.2385ZM17.8125 16.75C17.8125 17.325 17.3469 17.7917 16.7709 17.7917C16.1959 17.7917 15.724 17.325 15.724 16.75C15.724 16.175 16.1854 15.7083 16.7604 15.7083H16.7709C17.3459 15.7083 17.8125 16.175 17.8125 16.75Z" fill="#090A0A"/>
</svg>
