<svg width="17" height="21" viewBox="0 0 17 21" fill="none" xmlns="http://www.w3.org/2000/svg">
<path d="M8.50957 9.19792C6.06791 9.19792 4.08249 7.21146 4.08249 4.77083C4.08249 2.33021 6.06791 0.34375 8.50957 0.34375C10.9512 0.34375 12.9367 2.33021 12.9367 4.77083C12.9367 7.21146 10.9512 9.19792 8.50957 9.19792ZM8.50957 1.90625C6.92936 1.90625 5.64499 3.19062 5.64499 4.77083C5.64499 6.35104 6.92936 7.63542 8.50957 7.63542C10.0898 7.63542 11.3742 6.35104 11.3742 4.77083C11.3742 3.19062 10.0887 1.90625 8.50957 1.90625ZM12.6637 20.6562H4.33667C1.81584 20.6562 0.427246 19.2761 0.427246 16.7698C0.427246 13.998 1.996 10.7604 6.41683 10.7604H10.5835C15.0043 10.7604 16.5731 13.9969 16.5731 16.7698C16.5731 19.2761 15.1845 20.6562 12.6637 20.6562ZM6.41683 12.3229C2.30954 12.3229 1.98975 15.7261 1.98975 16.7698C1.98975 18.399 2.69188 19.0938 4.33667 19.0938H12.6637C14.3084 19.0938 15.0106 18.399 15.0106 16.7698C15.0106 15.7271 14.6908 12.3229 10.5835 12.3229H6.41683Z" fill="black"/>
</svg>
