<svg width="21" height="18" viewBox="0 0 21 18" fill="none" xmlns="http://www.w3.org/2000/svg">
<path d="M10.4602 16.7354H17.554C17.8302 16.7509 18.1058 16.6954 18.3545 16.5741C18.6032 16.4529 18.8167 16.2699 18.9746 16.0427C19.1325 15.8156 19.2296 15.5517 19.2567 15.2764C19.2837 15.001 19.2397 14.7233 19.129 14.4698C18.754 13.3365 17.2592 11.9771 17.2592 10.6396C17.2592 7.67084 17.2592 6.88959 15.7967 5.14375C15.3234 4.58181 14.7366 4.12635 14.0748 3.8073L13.2592 3.41146C13.1223 3.32886 13.0043 3.21853 12.9126 3.08757C12.8209 2.95661 12.7577 2.80791 12.7269 2.65105C12.6454 2.1223 12.3658 1.64436 11.9449 1.31416C11.5239 0.983955 10.9932 0.82621 10.4602 0.87292C9.93692 0.841495 9.42067 1.00627 9.01232 1.33507C8.60398 1.66386 8.33285 2.13307 8.2519 2.65105C8.21519 2.81333 8.14325 2.96556 8.04119 3.09696C7.93912 3.22836 7.80943 3.33573 7.66128 3.41146L6.84565 3.8073C6.18423 4.12648 5.59779 4.58193 5.12482 5.14375C3.66336 6.88959 3.66336 7.67084 3.66336 10.6396C3.66336 11.9771 2.23628 13.2 1.86128 14.401C1.63524 15.1271 1.51024 16.7354 3.40295 16.7354H10.4602Z" stroke="#090A0A" stroke-width="1.5" stroke-linecap="round" stroke-linejoin="round"/>
</svg>
